<mxfile host="app.diagrams.net" modified="2023-05-26T23:43:45.517Z" agent="Mozilla/5.0 (X11; Linux x86_64) AppleWebKit/537.36 (KHTML, like Gecko) Chrome/113.0.0.0 Safari/537.36" etag="bsvcNqjPUolndJtfi_XU" version="21.2.1" type="device">
  <diagram name="Page-1" id="9l9PlCtHk_8VZIL-cGlI">
    <mxGraphModel dx="1631" dy="1021" grid="1" gridSize="10" guides="1" tooltips="1" connect="1" arrows="1" fold="1" page="1" pageScale="1" pageWidth="850" pageHeight="1100" math="0" shadow="0">
      <root>
        <mxCell id="0" />
        <mxCell id="1" parent="0" />
        <mxCell id="UGkZzsO08fZWfS82BH3X-3" value="" style="rounded=0;whiteSpace=wrap;html=1;" vertex="1" parent="1">
          <mxGeometry x="40" y="360" width="680" height="320" as="geometry" />
        </mxCell>
        <mxCell id="0NnkyZU8CC3DVLhI65IK-5" value="build image" style="rounded=0;orthogonalLoop=1;jettySize=auto;html=1;" parent="1" source="0NnkyZU8CC3DVLhI65IK-1" target="0NnkyZU8CC3DVLhI65IK-2" edge="1">
          <mxGeometry relative="1" as="geometry" />
        </mxCell>
        <mxCell id="0NnkyZU8CC3DVLhI65IK-6" value="build disk" style="edgeStyle=orthogonalEdgeStyle;rounded=0;orthogonalLoop=1;jettySize=auto;html=1;" parent="1" source="0NnkyZU8CC3DVLhI65IK-1" target="0NnkyZU8CC3DVLhI65IK-3" edge="1">
          <mxGeometry relative="1" as="geometry" />
        </mxCell>
        <mxCell id="0NnkyZU8CC3DVLhI65IK-7" value="build system" style="rounded=0;orthogonalLoop=1;jettySize=auto;html=1;" parent="1" source="0NnkyZU8CC3DVLhI65IK-1" target="0NnkyZU8CC3DVLhI65IK-4" edge="1">
          <mxGeometry relative="1" as="geometry" />
        </mxCell>
        <mxCell id="0NnkyZU8CC3DVLhI65IK-1" value="stage1" style="rounded=1;whiteSpace=wrap;html=1;" parent="1" vertex="1">
          <mxGeometry x="320" y="450" width="120" height="60" as="geometry" />
        </mxCell>
        <mxCell id="0NnkyZU8CC3DVLhI65IK-8" value="install" style="edgeStyle=orthogonalEdgeStyle;rounded=0;orthogonalLoop=1;jettySize=auto;html=1;" parent="1" source="0NnkyZU8CC3DVLhI65IK-2" target="0NnkyZU8CC3DVLhI65IK-3" edge="1">
          <mxGeometry relative="1" as="geometry" />
        </mxCell>
        <mxCell id="0NnkyZU8CC3DVLhI65IK-2" value="image" style="rounded=1;whiteSpace=wrap;html=1;" parent="1" vertex="1">
          <mxGeometry x="120" y="570" width="120" height="60" as="geometry" />
        </mxCell>
        <mxCell id="0NnkyZU8CC3DVLhI65IK-9" value="init" style="edgeStyle=orthogonalEdgeStyle;rounded=0;orthogonalLoop=1;jettySize=auto;html=1;" parent="1" source="0NnkyZU8CC3DVLhI65IK-3" target="0NnkyZU8CC3DVLhI65IK-4" edge="1">
          <mxGeometry relative="1" as="geometry" />
        </mxCell>
        <mxCell id="0NnkyZU8CC3DVLhI65IK-3" value="disk" style="rounded=1;whiteSpace=wrap;html=1;" parent="1" vertex="1">
          <mxGeometry x="320" y="570" width="120" height="60" as="geometry" />
        </mxCell>
        <mxCell id="0NnkyZU8CC3DVLhI65IK-4" value="system" style="rounded=1;whiteSpace=wrap;html=1;" parent="1" vertex="1">
          <mxGeometry x="520" y="570" width="120" height="60" as="geometry" />
        </mxCell>
        <mxCell id="0NnkyZU8CC3DVLhI65IK-13" value="upgrade" style="edgeStyle=orthogonalEdgeStyle;rounded=0;orthogonalLoop=1;jettySize=auto;html=1;entryX=0.5;entryY=0;entryDx=0;entryDy=0;" parent="1" source="0NnkyZU8CC3DVLhI65IK-4" target="0NnkyZU8CC3DVLhI65IK-4" edge="1">
          <mxGeometry x="0.3043" relative="1" as="geometry">
            <Array as="points">
              <mxPoint x="680" y="600" />
              <mxPoint x="680" y="540" />
              <mxPoint x="580" y="540" />
            </Array>
            <mxPoint as="offset" />
          </mxGeometry>
        </mxCell>
        <mxCell id="UGkZzsO08fZWfS82BH3X-2" value="build stage1" style="edgeStyle=orthogonalEdgeStyle;rounded=0;orthogonalLoop=1;jettySize=auto;html=1;" edge="1" parent="1" source="UGkZzsO08fZWfS82BH3X-1" target="0NnkyZU8CC3DVLhI65IK-1">
          <mxGeometry relative="1" as="geometry" />
        </mxCell>
        <mxCell id="UGkZzsO08fZWfS82BH3X-1" value="yakd" style="rounded=1;whiteSpace=wrap;html=1;" vertex="1" parent="1">
          <mxGeometry x="320" y="330" width="120" height="60" as="geometry" />
        </mxCell>
      </root>
    </mxGraphModel>
  </diagram>
</mxfile>
